<?xml version="1.0" encoding="utf-8"?>
<!-- Generator: Adobe Illustrator 22.1.0, SVG Export Plug-In . SVG Version: 6.00 Build 0)  -->
<svg version="1.1" xmlns="http://www.w3.org/2000/svg" xmlns:xlink="http://www.w3.org/1999/xlink" x="0px" y="0px"
	 viewBox="0 0 841.9 595.3" style="enable-background:new 0 0 841.9 595.3;" xml:space="preserve">
<style type="text/css">
	.st0{fill:none;stroke:#1B1862;stroke-width:2;stroke-miterlimit:10;}
</style>
<g id="Layer_1">
</g>
<g id="Layer_2">
	<path class="st0" d="M275,243.4v40.2h24.5c0,0,23.5,2.2,24.8-21.5"/>
	<path class="st0" d="M324.2,258.9c0,0-0.2-13.4-11.9-17.4c0,0,9.8-5.7,9-19.1"/>
	<path class="st0" d="M321,220.4c0,0-1-14-17-15.8h-29v35.3"/>
	<path class="st0" d="M283.6,213.7v23.8h18.9c0,0,10.4,0.2,9.8-12.8c0,0,0.3-8-6.6-10.2C305.7,214.5,299.9,213.1,283.6,213.7z"/>
	<path class="st0" d="M283.6,247v27h20.5c0,0,10,0,11.1-12.6c0.6-7.2-3.4-10.8-6.6-12.6c-2.1-1.2-4.6-1.7-7-1.7H283.6z"/>
	<path class="st0" d="M332.8,241.8c0,0,0.9-35.1,24.3-35.9c0,0,23.4-0.8,24.5,35.9"/>
	<path class="st0" d="M381.7,246.3c0,0,0.5,24.9-14.2,33.8c-6.2,3.8-13.7,3.5-19.9-0.6c-6.4-4.3-13.8-13.5-14.8-33.2"/>
	<path class="st0" d="M340.6,242.4c0,0,0.6-25.9,16.6-26.5c0,0,16-0.6,16.7,26.5"/>
	<path class="st0" d="M373.9,245.5c0,0,0.3,18-9.7,24.5c-4.3,2.8-9.4,2.5-13.5-0.4c-4.4-3.1-9.4-9.8-10.1-24.1"/>
	<polyline class="st0" points="400.5,240.9 412,205.9 421,205.9 432.7,240.9 	"/>
	<polyline class="st0" points="434.2,245.7 448,284.7 437.7,284.7 430.2,260.2 403.5,260.2 396,284.7 386.2,284.7 399.2,245.7 	"/>
	<polygon class="st0" points="405.5,251.6 427.2,251.6 416.4,215.9 	"/>
	<path class="st0" d="M456,245.7v39h7.7v-35.2h9.9c0,0,6-0.1,8.8,6s13.7,29.2,13.7,29.2h9.4c0,0-13-32.8-20.1-36.2
		c0,0,16.3-3,15.3-22.5"/>
	<path class="st0" d="M500.2,223.4c0,0-0.9-15.6-12.9-17.5l-31.3-0.4v34.1"/>
	<path class="st0" d="M463.4,214.1v26h17.7c0,0,12.1,0.9,12-13c0,0-0.5-12.2-9.4-12.7L463.4,214.1z"/>
	<path class="st0" d="M516.8,241.8v-35.9h25c0,0,25.7-4.4,29,35.9"/>
	<path class="st0" d="M516.8,246.3v38.3h27c0,0,27.3-1,27-37"/>
	<path class="st0" d="M525.5,215.9v58.8h20c0,0,16.3-0.8,16-29c-0.1-5.5-0.6-10-1.4-13.7c-2.2-9.5-10.6-16.1-20.3-16.1H525.5z"/>
	<path class="st0" d="M269.1,352.2c0,0,0.4,37.5,31.6,38.5c0,0,11.8,0.7,20.7-6l7.3-6v-29.2H301v8.8h19.3v13.9c0,0-5.8,8.7-18.5,9.1
		c0,0-22.7,1.6-24-28.7"/>
	<path class="st0" d="M277.8,346.7c0,0-0.2-28.5,24-28.3c0,0,15.3-1,18.3,16.7l7-3.2c0,0-0.8-21.7-25-22.6c0,0-29.6-3.4-33.1,37.4"
		/>
	<polyline class="st0" points="345,345.2 356.5,310.2 365.5,310.2 377.3,345.2 	"/>
	<polyline class="st0" points="378.8,349.9 392.5,389 382.3,389 374.8,364.5 348,364.5 340.5,389 330.8,389 343.8,349.9 	"/>
	<polygon class="st0" points="350,355.9 371.8,355.9 360.9,320.2 	"/>
	<polyline class="st0" points="402.4,352.5 402.4,388.8 409.4,388.8 409.4,352.5 	"/>
	<polyline class="st0" points="402.4,348.7 402.4,315.6 413.6,315.6 422.5,349.3 	"/>
	<polyline class="st0" points="422.5,349.3 430.2,378.1 437.6,349.9 447.1,315.6 457.4,315.6 457.4,349.3 	"/>
	<polyline class="st0" points="409.4,352.5 409.4,326.6 415.4,347.6 426.6,388.8 432.9,388.8 449.8,327.9 449.8,388.8 457.4,388.8 
		457.4,352.5 	"/>
	<polyline class="st0" points="473,348.1 473,313.1 514.5,313.1 514.5,322.1 483,322.1 483,345.9 499.2,345.9 499.2,348.1 	"/>
	<polyline class="st0" points="499.5,352.4 499.5,354.9 482.5,354.9 482.5,379.9 514.5,379.9 514.5,389.1 473,389.1 473,352.4 	"/>
	<path class="st0" d="M546,357.3c0,0,10.5,5,9.5,13.7c0,0-1.3,8.7-11.3,9.2s-11.7-11.4-11.7-11.4l-9.8,0c0,0,0.8,21.2,21.3,21.6
		c0,0,20.7,0.1,21.2-22c0,0,0.4-11.6-19.2-21.8"/>
	<path class="st0" d="M542.1,344.3c0,0-12.9-6.2-10.1-14.9c0,0,2.8-9.9,15-7.3c0,0,7.1,2.9,7.2,10.9h9.6c0,0-0.3-20.1-20.6-21.6
		c0,0-18.2-1.4-21.5,19.2c0,0-0.2,9.7,6,14.6c6.2,4.9,14.2,9.8,14.2,9.8"/>
</g>
</svg>
