<?xml version="1.0" encoding="utf-8"?>
<!-- Generator: Adobe Illustrator 22.1.0, SVG Export Plug-In . SVG Version: 6.00 Build 0)  -->
<svg version="1.1" id="Layer_1" xmlns="http://www.w3.org/2000/svg" xmlns:xlink="http://www.w3.org/1999/xlink" x="0px" y="0px"
	 viewBox="0 0 841.9 595.3" style="enable-background:new 0 0 841.9 595.3;" xml:space="preserve">
<style type="text/css">
	.st0{fill:#1B1862;}
</style>
<g>
	<path class="st0" d="M702.2,300.1c0,45.7,0.4,91.5-0.1,137.2c-0.9,90.1-62.5,152.7-152.4,153.5c-93.8,0.8-187.6,0.9-281.3,0
		c-89.9-0.8-151.5-63.5-152-153.7c-0.5-92.3-0.5-184.5,0-276.8C116.8,67.8,179.1,5.8,272,5.3c91.5-0.5,183-0.5,274.5,0
		c92.6,0.5,155,62.9,155.7,155.2C702.5,207,702.3,253.5,702.2,300.1z M590.3,298.6c0-34.3,0-68.6,0-102.9c0-1.5,0-3.1-0.1-4.6
		c-1.9-47.3-27-73.6-74.4-74.2c-71.6-1-143.3-1.1-214.9,0.1c-46.1,0.7-72.4,27.3-73,73.2c-1,71.6-0.9,143.3,0,214.9
		c0.6,47,27.1,73.6,74.4,74.2c70.9,1,141.8,0.9,212.7,0c48.7-0.6,74.3-26.8,75.3-75.6C590.9,368.7,590.3,333.6,590.3,298.6z"/>
	<path class="st0" d="M260.8,262.3c19.7,0,36.3,0,53.9,0c-12.8,49.6-2.1,91,40.8,119.3c34.2,22.6,71.1,22.8,105.7,0.8
		c44.3-28.1,54.7-70.2,42.4-120.2c17.9,0,34.4,0,52.7,0c0,51.7,1,102.5-0.5,153.2c-0.6,19.1-15.1,30.3-34,30.4
		c-74.7,0.7-149.4,0.8-224.1,0.2c-22.4-0.2-36-14.1-36.6-36C259.9,361.3,260.8,312.6,260.8,262.3z"/>
	<path class="st0" d="M409.7,233.9c34.8,0.3,63,29.2,63.3,64.8c0.3,34.2-29.8,63.6-64.6,63.3c-34-0.3-63-28.9-63.2-62.3
		C345,263.1,373.9,233.6,409.7,233.9z"/>
	<path class="st0" d="M488.3,218.7c0-20.3,0-39.5,0-60c19.7,0,38.3,0,58.4,0c0,20.4,0,39.6,0,60
		C526.7,218.7,508.2,218.7,488.3,218.7z"/>
</g>
</svg>
