<?xml version="1.0" encoding="utf-8"?>
<!-- Generator: Adobe Illustrator 22.1.0, SVG Export Plug-In . SVG Version: 6.00 Build 0)  -->
<svg version="1.1" id="Layer_1" xmlns="http://www.w3.org/2000/svg" xmlns:xlink="http://www.w3.org/1999/xlink" x="0px" y="0px"
	 viewBox="0 0 841.9 595.3" style="enable-background:new 0 0 841.9 595.3;" xml:space="preserve">
<style type="text/css">
	.st0{fill:#1B1862;}
</style>
<g>
	<g>
		<path class="st0" d="M719.4,299.7c0,46.4,0.5,92.9,0,139.3c-0.9,91.5-63.6,154.6-154.6,155.6c-95.2,0.9-190.4,0.9-285.6,0
			c-90.1-0.9-153.2-64.1-153.7-153.7c-0.9-95.2-0.9-190.4,0-285.6C125.9,65.2,189.1,1.6,278.7,0.7c95.7-0.9,191.8-0.9,287.9,0
			c89.6,0.9,151.8,65,153.2,155.1C719.8,204.1,719.4,251.9,719.4,299.7z M417.1,240.8c-63.6-3.7-111.9-33-154.6-76.2
			c-19,37.1-7.9,66.9,16.7,97c-11.6-1.9-18.6-3.3-26.5-4.6c1.4,36.2,23.2,55.7,53.9,72c-11.6,0.9-19,1.9-27.4,2.8
			c10.7,31.6,35.3,43.6,64.1,51.1c0.5,2.8,0.5,5.1,0.9,7.9c-32,9.8-64.5,19-96.1,28.8c0,0,2.3,1.9,4.6,3.3
			C377.6,491,542,412.1,564.3,271.4c4.6-28.8,5.6-56.2,32.5-74.3c1.9-1.4,2.3-4.2,4.6-7.9c-11.6,2.3-21.4,4.6-31.1,6.5
			c8.4-11.6,15.8-22.3,23.2-33c-26,10.2-46.9,13-70.6-4.2c-18.1-13-41.3-10.2-62.2-0.5C426.4,173.4,415.7,202.7,417.1,240.8z"/>
	</g>
</g>
</svg>
