<?xml version="1.0" encoding="utf-8"?>
<!-- Generator: Adobe Illustrator 22.1.0, SVG Export Plug-In . SVG Version: 6.00 Build 0)  -->
<svg version="1.1" id="Layer_1" xmlns="http://www.w3.org/2000/svg" xmlns:xlink="http://www.w3.org/1999/xlink" x="0px" y="0px"
	 viewBox="0 0 841.9 595.3" style="enable-background:new 0 0 841.9 595.3;" xml:space="preserve">
<style type="text/css">
	.st0{fill:#1B1862;}
</style>
<g>
	<g>
		<path class="st0" d="M422.9,0.3c46.4,0,92.8-0.3,139.1,0C653.3,1.2,716.6,64,717.3,154.9c0.6,94.9,0.9,190.1,0,285.1
			c-0.6,89.7-64.3,152.7-154,153.4c-94.9,0.6-190.1,0.6-285.1,0c-89.7-0.6-153-63.7-154-153.4c-0.6-94.9-0.6-190.1,0-285.1
			C124.9,64,188.3,1.2,279.5,0.3C327.1-0.3,375,0.3,422.9,0.3z M374.4,297.7c0,61.5,0,121.5,0,181.2c24.4,0,46.4,0,70.8,0
			c0-61.8,0-121.5,0-182.7c19.5,0,36.2,0,54.7,0c2.2-24.7,4-48.2,6.2-74.8c-20.4,0-38.3,0-59.4,0c1.9-15.1-0.6-34,5.9-37.7
			c13.9-8.3,32.5-9,50.4-13c0-17.9,0-37.4,0-58.7c-35.9,1.9-71.1-7.1-103,13.3c-35.2,22.9-30.3,60.9-32.5,95.8
			c-11.4,0.9-20.4,1.5-30.6,2.2c0,24.4,0,47.9,0,73C349,296.5,359.9,297.1,374.4,297.7z"/>
	</g>
</g>
</svg>
