<?xml version="1.0" encoding="utf-8"?>
<!-- Generator: Adobe Illustrator 22.1.0, SVG Export Plug-In . SVG Version: 6.00 Build 0)  -->
<svg version="1.1" id="Layer_1" xmlns="http://www.w3.org/2000/svg" xmlns:xlink="http://www.w3.org/1999/xlink" x="0px" y="0px"
	 viewBox="0 0 841.9 595.3" style="enable-background:new 0 0 841.9 595.3;" xml:space="preserve">
<style type="text/css">
	.st0{clip-path:url(#SVGID_2_);fill:#28285B;}
</style>
<g>
	<defs>
		<rect id="SVGID_1_" x="30.6" y="183.3" width="783.5" height="219.6"/>
	</defs>
	<clipPath id="SVGID_2_">
		<use xlink:href="#SVGID_1_"  style="overflow:visible;"/>
	</clipPath>
	<path class="st0" d="M143.7,288.4c-1.7,0-3-1.3-3-3v-92.7h-19.1v87.1c0,1.7-1.4,3-3,3H58.7c-1.7,0-3-1.3-3-3v-87.1H36.6v92.7
		c0,1.7-1.3,3-3,3c-1.7,0-3-1.3-3-3v-95.8c0-1.7,1.4-3,3-3h25.1c1.7,0,3,1.3,3,3v87.1h53.9v-87.1c0-1.7,1.3-3,3-3h25.1
		c1.7,0,3,1.3,3,3v95.8C146.7,287.1,145.4,288.4,143.7,288.4"/>
	<path class="st0" d="M143.7,401.5h-25.1c-1.7,0-3-1.3-3-3v-90.6H61.7v90.6c0,1.7-1.3,3-3,3H33.6c-1.7,0-3-1.3-3-3V298
		c0-1.7,1.4-3,3-3c1.7,0,3,1.3,3,3v97.5h19.1v-90.6c0-1.7,1.3-3,3-3h59.9c1.7,0,3,1.3,3,3v90.6h19.1V298c0-1.7,1.4-3,3-3
		c1.7,0,3,1.3,3,3v100.5C146.7,400.1,145.4,401.5,143.7,401.5"/>
	<path class="st0" d="M229.8,402.9c-15.1,0-29.1-5.2-39.5-14.6c-11.8-10.6-18-25.9-18-44v-94.4c0-1.7,1.3-3,3-3c1.7,0,3,1.3,3,3
		v94.4c0,16.4,5.5,30.1,16,39.6c9.3,8.4,21.9,13,35.5,13c13.8,0,26.6-4.7,36.2-13.2c10.7-9.6,16.4-23.2,16.4-39.3v-94.4
		c0-1.7,1.3-3,3-3s3,1.3,3,3v94.4C288.4,382.7,258.9,402.9,229.8,402.9"/>
	<path class="st0" d="M224.2,378c-0.2,0-0.4,0-0.6-0.1c-15.9-3.2-26.2-16.4-26.2-33.7V193.1h-19.1v44.2c0,1.7-1.3,3-3,3
		c-1.7,0-3-1.3-3-3v-47.2c0-1.7,1.3-3,3-3h25.1c1.7,0,3,1.4,3,3v154.1c0,17.4,11,25.8,21.3,27.8c1.6,0.3,2.7,1.9,2.4,3.5
		C226.9,377,225.6,378,224.2,378"/>
	<path class="st0" d="M236.5,378c-1.4,0-2.7-1-3-2.4c-0.3-1.6,0.7-3.2,2.4-3.5c10.3-2,21.3-10.4,21.3-27.8V190.1c0-1.7,1.3-3,3-3
		h25.1c1.7,0,3,1.4,3,3v47.2c0,1.7-1.4,3-3,3s-3-1.3-3-3v-44.2h-19.1v151.1c0,17.4-10.3,30.6-26.2,33.7
		C236.9,378,236.7,378,236.5,378"/>
	<path class="st0" d="M368.9,307c-0.5,0-1-0.1-1.5-0.4c-49.2-27.8-54.5-43.7-56.3-61.6c0,0,0-0.1,0-0.1
		c-0.9-16.2,4.8-31.5,15.8-43.2c11.3-11.9,26.9-18.5,44-18.5c32.9,0,59.7,27,59.7,60.1c0,1.7-1.3,3-3,3h-26.5c-1.6,0-3-1.3-3-2.9
		c-0.5-16.3-11.4-27.2-27.1-27.2c-8.3,0-15.9,3.1-20.9,8.5c-4.6,4.9-6.7,11.3-6.2,18.4c0.6,12.2,10.5,19.2,26.8,29.2
		c1.4,0.9,1.9,2.7,1,4.1c-0.9,1.4-2.7,1.9-4.1,1c-17.4-10.8-28.9-18.9-29.6-34c-0.6-8.6,2.1-16.8,7.8-22.9
		c6.2-6.6,15.4-10.4,25.4-10.4c17.9,0,31.1,12.3,33,30.2h20.6c-1.6-28.4-25-51.1-53.6-51.1c-15.4,0-29.5,5.9-39.6,16.6
		c-9.9,10.5-14.9,24.2-14.2,38.7c1.6,16.1,6.6,30.5,53.3,56.8c1.5,0.8,2,2.7,1.1,4.1C371,306.5,370,307,368.9,307"/>
	<path class="st0" d="M374.2,402.9c-33.5,0-60.7-27.7-60.7-61.7c0-1.7,1.3-3,3-3h27c1.6,0,3,1.3,3,2.9c0.5,16,12.4,28.1,27.7,28.1
		c8.4,0,16.1-3.2,21.3-8.7c4.7-5.1,7-11.7,6.4-19.1c-0.6-12.3-9.5-18.9-24-28.3c-1.4-0.9-1.8-2.8-0.9-4.2c0.9-1.4,2.8-1.8,4.2-0.9
		c15.7,10.2,26,17.9,26.7,33c0.6,8.9-2.2,17.3-8,23.6c-6.3,6.7-15.6,10.6-25.7,10.6c-17.7,0-31.6-13.1-33.5-31h-21.1
		c1.5,29.3,25.4,52.7,54.6,52.7c15.6,0,29.8-6,40.1-16.8c10.2-10.8,15.4-25,14.7-40c-1.6-16.1-6.6-31.4-50.9-56.2
		c-1.5-0.8-2-2.6-1.2-4.1c0.8-1.5,2.7-2,4.1-1.2c42.4,23.8,51.9,40.3,54,61c0,0,0,0.1,0,0.1c0.9,16.5-5.1,32.7-16.3,44.6
		C407.3,396.2,391.5,402.9,374.2,402.9"/>
	<path class="st0" d="M567,402H456.8c-1.7,0-3-1.3-3-3v-99.6c0-1.7,1.4-3,3-3s3,1.4,3,3V396h104.1v-19.1h-82c-1.7,0-3-1.3-3-3v-68.5
		c0-1.7,1.3-3,3-3H524v-2.9c0-1.7,1.4-3,3-3s3,1.4,3,3v6c0,1.7-1.4,3-3,3h-42.1v62.5h82c1.7,0,3,1.3,3,3V399
		C570,400.6,568.6,402,567,402"/>
	<path class="st0" d="M527,289.8c-1.7,0-3-1.3-3-3v-3.5h-42.1c-1.7,0-3-1.3-3-3v-65c0-1.7,1.3-3,3-3h82v-19.1H459.8v93.6
		c0,1.7-1.3,3-3,3c-1.7,0-3-1.3-3-3v-96.6c0-1.7,1.4-3,3-3H567c1.7,0,3,1.4,3,3v25.1c0,1.7-1.4,3-3,3h-82v59H527c1.7,0,3,1.4,3,3
		v6.5C530,288.4,528.7,289.8,527,289.8"/>
	<path class="st0" d="M639.9,401.5h-6.6c-1.7,0-3-1.3-3-3V217.7h-39.2c-1.7,0-3-1.3-3-3v-25.1c0-1.7,1.3-3,3-3h48.8c1.7,0,3,1.4,3,3
		c0,1.7-1.4,3-3,3h-45.8v19.1h39.2c1.7,0,3,1.3,3,3v180.7h3.6c1.7,0,3,1.3,3,3C642.9,400.1,641.6,401.5,639.9,401.5"/>
	<path class="st0" d="M659,401.5h-6.4c-1.7,0-3-1.3-3-3c0-1.7,1.4-3,3-3h3.4V214.7c0-1.7,1.4-3,3-3h39.2v-19.1h-45.6
		c-1.7,0-3-1.3-3-3c0-1.7,1.4-3,3-3h48.6c1.7,0,3,1.4,3,3v25.1c0,1.7-1.3,3-3,3H662v180.7C662,400.1,660.7,401.5,659,401.5"/>
	<path class="st0" d="M753.1,401.5c-0.8,0-1.5-0.3-2.1-0.9l-58-58c-0.9-0.9-1.1-2.2-0.7-3.3c0.5-1.1,1.6-1.9,2.8-1.9h51.7
		c1.7,0,3,1.4,3,3s-1.4,3-3,3h-44.5l50.7,50.7l50.7-50.7h-44.2c-1.7,0-3-1.3-3-3s1.3-3,3-3h51.5c1.2,0,2.3,0.7,2.8,1.9
		c0.5,1.1,0.2,2.4-0.7,3.3l-58,58C754.6,401.2,753.9,401.5,753.1,401.5"/>
</g>
</svg>
