<?xml version="1.0" encoding="utf-8"?>
<!-- Generator: Adobe Illustrator 22.1.0, SVG Export Plug-In . SVG Version: 6.00 Build 0)  -->
<svg version="1.1" id="Layer_1" xmlns="http://www.w3.org/2000/svg" xmlns:xlink="http://www.w3.org/1999/xlink" x="0px" y="0px"
	 viewBox="0 0 841.9 595.3" style="enable-background:new 0 0 841.9 595.3;" xml:space="preserve">
<style type="text/css">
	.st0{fill:#1B1862;}
</style>
<g>
	<path class="st0" d="M478.3-22.3c-0.3,1-0.6,2.9-1.4,4.6c-9,19.8-18,39.5-27,59.2c-3.4,7.5-9.8,9.8-17.3,6.4
		C413,39,393.5,30.1,374,21.2c-7.6-3.5-10-9.8-6.6-17.4c9-19.7,18-39.5,27.1-59.2c3.1-6.8,9.8-9.2,16.6-6.1
		c19.9,9.1,39.8,18.2,59.7,27.3C475.5-32.1,478-28.4,478.3-22.3z M433.2,12c-6.3,0-11.3,5.2-11.3,11.4c0,6.2,5.3,11.4,11.5,11.2
		c6.2-0.1,11.2-5.2,11.2-11.3C444.5,17.1,439.4,11.9,433.2,12z M422.1-36.7c0-6.3-5-11.4-11.3-11.4c-6.3,0-11.3,5.1-11.3,11.4
		c0,6.3,5.1,11.4,11.4,11.3C417.1-25.5,422.1-30.5,422.1-36.7z M422,4.6c6.3,0,11.4-5,11.4-11.3c0-6.3-5-11.3-11.3-11.3
		c-6.2,0-11.3,5-11.3,11.2C410.7-0.6,415.7,4.6,422,4.6z"/>
	<path class="st0" d="M357.8,18.4c-4.5,2.1-8.7,4.2-13.1,6c-6,2.5-12.4-0.4-15.3-6.5c-8.2-17.5-16.3-35-24.5-52.5
		c-1.1-2.4-2.3-4.9-3.4-7.3c-2.9-6.5-0.5-13.2,5.9-16.2c20-9.4,40-18.7,60-28c6.3-2.9,13-0.6,16,5.6c2.3,4.7,4.5,9.5,6.7,14.3
		c0.2,0.5,0.2,1.4-0.1,2C379.4-40.6,368.6-17,357.8,6.6C356.1,10.5,356.2,14.3,357.8,18.4z M357-0.9c0-6.3-5-11.4-11.2-11.4
		c-6.3,0-11.3,5-11.3,11.3c0,6.3,5.1,11.4,11.3,11.3C351.9,10.4,356.9,5.3,357-0.9z M337.8-41.9c0.1-6.3-4.9-11.3-11.2-11.4
		c-6.2,0-11.3,4.9-11.3,11.1c0,6.3,4.8,11.4,10.9,11.5C332.7-30.6,337.7-35.5,337.8-41.9z M367.5-49.9c6.3,0,11.4-5,11.4-11.3
		c0.1-6.2-5.1-11.3-11.4-11.3c-6.2,0-11.3,5-11.3,11.2C356.2-55.1,361.3-49.9,367.5-49.9z"/>
</g>
<g>
	<path class="st0" d="M686.4,51.7c0.4,1,1.4,2.7,1.9,4.5c5.6,21,11.1,41.9,16.7,62.9c2.1,7.9-1.4,13.8-9.3,15.9
		c-20.7,5.5-41.5,11-62.2,16.5c-8.1,2.1-14-1.2-16.1-9.3c-5.6-21-11.1-41.9-16.7-62.9c-1.9-7.2,1.7-13.3,8.9-15.2
		c21.1-5.6,42.3-11.2,63.5-16.8C678,45.9,682.3,47.2,686.4,51.7z M673.3,106.8c-4.8,4-5.5,11.2-1.5,16c4,4.8,11.3,5.4,16,1.4
		c4.7-4,5.4-11.1,1.5-15.9C685.3,103.5,678.1,102.8,673.3,106.8z M633.9,76.2c-4-4.9-11.1-5.6-16-1.6c-4.9,4-5.5,11.1-1.5,16
		c4,4.8,11.2,5.5,16,1.5C637.2,88,637.8,81,633.9,76.2z M659.9,108.2c4.9-4,5.6-11.1,1.7-15.9c-4-4.9-11.1-5.6-16-1.6
		c-4.8,3.9-5.5,11-1.7,15.8C647.9,111.4,655.1,112.2,659.9,108.2z"/>
	<path class="st0" d="M619.1,159.6c-2.1,4.5-4,8.8-6.3,12.9c-3.1,5.7-9.9,7.6-15.9,4.7c-17.4-8.3-34.8-16.7-52.2-25
		c-2.4-1.2-4.9-2.3-7.3-3.5c-6.4-3.2-8.8-9.8-5.7-16.3c9.5-19.9,19-39.8,28.6-59.7c3-6.3,9.7-8.7,16-5.8c4.8,2.2,9.5,4.5,14.3,6.8
		c0.5,0.3,1,1,1.2,1.6c6.7,25.1,13.3,50.1,19.9,75.2C612.7,154.6,615.3,157.5,619.1,159.6z M606.2,145.2c-4-4.9-11.1-5.7-15.9-1.7
		c-4.9,4-5.6,11.1-1.6,16c4,4.9,11.1,5.6,16,1.6C609.4,157.1,610.1,150,606.2,145.2z M565.4,125.7c-4-4.9-11-5.7-15.9-1.7
		c-4.8,3.9-5.6,11-1.7,15.8c4,4.9,10.9,5.8,15.8,1.9C568.6,137.7,569.4,130.7,565.4,125.7z M583.3,100.6c4.9-4,5.6-11,1.7-15.9
		c-3.9-4.8-11.1-5.5-16-1.5c-4.8,3.9-5.5,11-1.7,15.8C571.2,103.8,578.5,104.6,583.3,100.6z"/>
</g>
<g>
	<path class="st0" d="M885.9,247.5c-0.2,0.7-0.4,1.9-0.9,3c-5.8,12.8-11.7,25.6-17.5,38.3c-2.2,4.8-6.4,6.4-11.2,4.2
		c-12.6-5.8-25.3-11.5-37.9-17.3c-4.9-2.2-6.5-6.4-4.3-11.3c5.8-12.8,11.7-25.6,17.5-38.3c2-4.4,6.3-6,10.7-4
		c12.9,5.9,25.8,11.8,38.7,17.7C884.1,241.1,885.7,243.5,885.9,247.5z M856.7,269.7c-4.1,0-7.3,3.4-7.3,7.4c0,4,3.4,7.4,7.4,7.3
		c4-0.1,7.3-3.4,7.3-7.3C864.1,273,860.7,269.7,856.7,269.7z M849.6,238.2c0-4.1-3.3-7.4-7.3-7.4c-4.1,0-7.3,3.3-7.3,7.4
		c0,4.1,3.3,7.4,7.4,7.3C846.3,245.4,849.6,242.2,849.6,238.2z M849.4,264.9c4.1,0,7.4-3.2,7.4-7.3c0-4.1-3.3-7.3-7.3-7.3
		c-4,0-7.3,3.2-7.3,7.2C842.1,261.6,845.4,264.9,849.4,264.9z"/>
	<path class="st0" d="M807.9,273.8c-2.9,1.4-5.6,2.7-8.5,3.9c-3.9,1.6-8.1-0.2-9.9-4.2c-5.3-11.3-10.6-22.7-15.9-34
		c-0.7-1.6-1.5-3.2-2.2-4.8c-1.9-4.2-0.3-8.5,3.9-10.5c12.9-6.1,25.9-12.1,38.9-18.1c4.1-1.9,8.4-0.4,10.4,3.7
		c1.5,3.1,2.9,6.2,4.3,9.3c0.2,0.4,0.1,0.9,0,1.3c-7,15.3-13.9,30.6-20.9,45.8C806.8,268.7,806.9,271.2,807.9,273.8z M807.3,261.4
		c0-4.1-3.2-7.4-7.3-7.4c-4.1,0-7.3,3.3-7.3,7.3c0,4.1,3.3,7.4,7.3,7.3C804.1,268.6,807.3,265.4,807.3,261.4z M794.9,234.8
		c0-4.1-3.2-7.3-7.3-7.4c-4,0-7.3,3.2-7.3,7.2c0,4.1,3.1,7.4,7.1,7.4C791.6,242.1,794.9,238.9,794.9,234.8z M814.2,229.6
		c4.1,0,7.4-3.2,7.4-7.3c0-4-3.3-7.3-7.4-7.3c-4,0-7.3,3.2-7.3,7.2C806.8,226.3,810.1,229.6,814.2,229.6z"/>
</g>
<g>
	<path class="st0" d="M612.7,416.4c-0.2,0.6-0.4,1.7-0.8,2.7c-5.2,11.5-10.5,23-15.7,34.4c-2,4.3-5.7,5.7-10.1,3.7
		c-11.3-5.2-22.7-10.4-34-15.6c-4.4-2-5.8-5.7-3.8-10.1c5.2-11.5,10.5-23,15.7-34.4c1.8-3.9,5.7-5.4,9.6-3.6
		c11.6,5.3,23.1,10.6,34.7,15.9C611.1,410.8,612.6,412.9,612.7,416.4z M586.5,436.4c-3.6,0-6.6,3-6.6,6.7c0,3.6,3.1,6.6,6.7,6.5
		c3.6-0.1,6.5-3,6.5-6.6C593.1,439.4,590.1,436.4,586.5,436.4z M580.1,408.1c0-3.7-2.9-6.6-6.6-6.6c-3.7,0-6.6,2.9-6.6,6.6
		c0,3.7,3,6.6,6.6,6.6C577.2,414.6,580.1,411.7,580.1,408.1z M580,432.1c3.7,0,6.6-2.9,6.6-6.6c0-3.7-2.9-6.6-6.6-6.6
		c-3.6,0-6.5,2.9-6.6,6.5C573.4,429.1,576.4,432.1,580,432.1z"/>
	<path class="st0" d="M542.7,440.1c-2.6,1.2-5.1,2.5-7.6,3.5c-3.5,1.4-7.2-0.2-8.9-3.8c-4.7-10.2-9.5-20.4-14.2-30.5
		c-0.7-1.4-1.3-2.8-2-4.3c-1.7-3.8-0.3-7.7,3.5-9.4c11.6-5.4,23.3-10.9,34.9-16.3c3.7-1.7,7.5-0.3,9.3,3.3c1.4,2.8,2.6,5.5,3.9,8.3
		c0.1,0.3,0.1,0.8,0,1.2c-6.2,13.7-12.5,27.4-18.8,41.2C541.7,435.5,541.8,437.8,542.7,440.1z M542.2,428.9c0-3.7-2.9-6.6-6.5-6.6
		c-3.6,0-6.6,2.9-6.6,6.6c0,3.7,2.9,6.6,6.6,6.6C539.3,435.5,542.2,432.5,542.2,428.9z M531.1,405.1c0-3.7-2.8-6.6-6.5-6.6
		c-3.6,0-6.6,2.9-6.6,6.4c0,3.7,2.8,6.6,6.4,6.7C528.1,411.6,531,408.8,531.1,405.1z M548.3,400.4c3.7,0,6.6-2.9,6.6-6.5
		c0-3.6-2.9-6.6-6.6-6.6c-3.6,0-6.6,2.9-6.6,6.5C541.8,397.4,544.7,400.4,548.3,400.4z"/>
</g>
<g>
	<path class="st0" d="M645.1,543.6c0.7-0.9,1.7-2.5,3.1-3.8c15.8-14.8,31.7-29.6,47.5-44.4c6-5.6,12.8-5.3,18.4,0.7
		c14.6,15.7,29.3,31.3,43.9,47c5.7,6.1,5.5,12.9-0.5,18.6c-15.8,14.8-31.7,29.6-47.6,44.4c-5.4,5.1-12.6,4.8-17.6-0.6
		c-14.9-16-29.9-32-44.8-48C643.9,553.6,643,549.3,645.1,543.6z M699.8,529c5.8,2.3,12.5-0.5,14.8-6.3c2.3-5.8-0.6-12.5-6.3-14.8
		c-5.8-2.3-12.4,0.5-14.7,6.2C691.2,520,694,526.7,699.8,529z M691.5,578.2c-2.4,5.8,0.3,12.4,6.1,14.8c5.8,2.4,12.4-0.4,14.8-6.2
		c2.4-5.8-0.4-12.4-6.2-14.8C700.4,569.7,693.9,572.5,691.5,578.2z M707.4,540.1c-5.8-2.4-12.4,0.3-14.8,6.1
		c-2.4,5.8,0.3,12.4,6.2,14.8c5.7,2.4,12.3-0.3,14.7-6C715.9,549.2,713.2,542.5,707.4,540.1z"/>
	<path class="st0" d="M771.9,551.8c4.9-0.2,9.7-0.6,14.4-0.6c6.5,0,11.4,5.1,11.7,11.8c0.9,19.3,1.8,38.6,2.6,57.9
		c0.1,2.7,0.3,5.4,0.4,8.1c0.2,7.2-4.5,12.4-11.7,12.7c-22,1.1-44.1,2.1-66.1,3c-6.9,0.3-12.2-4.4-12.7-11.3
		c-0.4-5.3-0.5-10.5-0.7-15.8c0-0.6,0.4-1.4,0.8-1.8c18.9-17.7,37.9-35.4,56.8-53.1C770.5,559.8,771.9,556.2,771.9,551.8z
		 M765.4,569.9c-2.4,5.8,0.3,12.4,6,14.8c5.8,2.4,12.4-0.3,14.8-6.2c2.4-5.8-0.4-12.4-6.2-14.8C774.4,561.5,767.8,564.2,765.4,569.9
		z M767.5,615.2c-2.5,5.8,0.2,12.4,6,14.8c5.7,2.4,12.3-0.2,14.7-5.9c2.4-5.8-0.1-12.4-5.7-14.8C776.5,606.7,770,609.3,767.5,615.2z
		 M737,611.2c-5.8-2.4-12.4,0.3-14.8,6.1c-2.4,5.7,0.4,12.4,6.2,14.8c5.7,2.4,12.3-0.3,14.7-6C745.5,620.3,742.7,613.6,737,611.2z"
		/>
</g>
<g>
	<path class="st0" d="M249.5,447.4c0.9,1.2,2.6,3.1,3.8,5.3c13.8,25.7,27.6,51.5,41.4,77.2c5.2,9.7,2.5,18.5-7.2,23.8
		c-25.5,13.6-50.9,27.2-76.4,40.9c-9.9,5.3-18.7,2.7-24-7.1c-13.8-25.7-27.6-51.5-41.3-77.3c-4.7-8.8-1.9-18,6.9-22.7
		c26-13.9,51.9-27.8,77.9-41.7C236.8,442.4,242.8,442.8,249.5,447.4z M249.5,523.7c-5,6.7-3.7,16.4,3,21.4c6.7,5,16.5,3.6,21.4-3.1
		c4.9-6.7,3.6-16.3-3-21.2C264.2,515.6,254.5,517,249.5,523.7z M188.4,495.8c-6.7-5.2-16.3-3.9-21.4,2.8c-5.1,6.7-3.8,16.2,3,21.4
		c6.7,5.1,16.3,3.8,21.4-3C196.4,510.3,195,500.9,188.4,495.8z M232.5,529.7c5.2-6.7,3.9-16.3-2.8-21.4c-6.7-5.1-16.3-3.8-21.4,2.9
		c-5.1,6.7-3.8,16.1,2.7,21.2C217.7,537.6,227.3,536.4,232.5,529.7z"/>
	<path class="st0" d="M194.9,609.6c-1.4,6.5-2.6,12.8-4.2,18.9c-2.3,8.4-10.6,13-19.4,11.1c-25.4-5.5-50.8-11.1-76.2-16.6
		c-3.5-0.8-7.1-1.5-10.6-2.3c-9.4-2.2-14.5-10.2-12.5-19.6c6.3-29,12.6-58.1,19-87.1c2-9.1,10-14.4,19.1-12.6
		c7,1.4,13.9,2.9,20.8,4.5c0.8,0.2,1.7,1,2.1,1.7c16.5,30.8,33,61.5,49.4,92.3C185,605,189.3,608,194.9,609.6z M173.6,594.8
		c-6.7-5.2-16.3-4-21.4,2.7c-5.1,6.7-3.8,16.2,2.9,21.4c6.7,5.1,16.3,3.8,21.4-2.9C181.5,609.4,180.2,599.9,173.6,594.8z M114,581.9
		c-6.7-5.2-16.1-4-21.3,2.7c-5.1,6.6-4,16.1,2.6,21.2c6.7,5.2,16.1,4.2,21.2-2.4C121.9,596.6,120.8,587.1,114,581.9z M129.7,543.5
		c5.2-6.8,3.9-16.2-2.7-21.4c-6.6-5.1-16.2-3.8-21.4,2.9c-5.1,6.6-3.8,16.1,2.7,21.2C114.9,551.5,124.6,550.2,129.7,543.5z"/>
</g>
<g>
	<path class="st0" d="M208.9,181.2c-0.2,0.7-0.4,1.9-0.9,3c-5.9,13-11.8,25.9-17.8,38.9c-2.2,4.9-6.5,6.4-11.4,4.2
		c-12.8-5.9-25.6-11.7-38.4-17.6c-5-2.3-6.6-6.4-4.3-11.4c5.9-13,11.8-25.9,17.8-38.9c2-4.4,6.4-6.1,10.9-4
		c13.1,6,26.1,11.9,39.2,17.9C207.1,174.8,208.7,177.2,208.9,181.2z M179.3,203.7c-4.1,0-7.4,3.4-7.4,7.5c0,4.1,3.5,7.5,7.5,7.4
		c4.1-0.1,7.4-3.4,7.4-7.4C186.8,207,183.4,203.7,179.3,203.7z M172,171.7c0-4.1-3.3-7.5-7.4-7.5c-4.1,0-7.4,3.3-7.4,7.5
		c0,4.1,3.4,7.5,7.5,7.4C168.8,179.1,172,175.8,172,171.7z M171.9,198.9c4.1,0,7.5-3.3,7.5-7.4c0-4.1-3.3-7.4-7.4-7.4
		c-4.1,0-7.4,3.3-7.4,7.3C164.5,195.5,167.8,198.8,171.9,198.9z"/>
	<path class="st0" d="M129.8,207.9c-2.9,1.4-5.7,2.8-8.6,4c-3.9,1.6-8.2-0.3-10-4.3c-5.4-11.5-10.7-23-16.1-34.5
		c-0.7-1.6-1.5-3.2-2.2-4.8c-1.9-4.3-0.4-8.6,3.9-10.6c13.1-6.2,26.3-12.3,39.4-18.4c4.1-1.9,8.5-0.4,10.5,3.7
		c1.5,3.1,3,6.3,4.4,9.4c0.2,0.4,0.1,0.9,0,1.3c-7.1,15.5-14.1,31-21.2,46.5C128.7,202.7,128.8,205.2,129.8,207.9z M129.2,195.3
		c0-4.1-3.3-7.5-7.4-7.5c-4.1,0-7.4,3.3-7.4,7.4c0,4.1,3.3,7.5,7.4,7.4C125.9,202.6,129.2,199.3,129.2,195.3z M116.7,168.3
		c0-4.1-3.2-7.4-7.4-7.5c-4.1,0-7.4,3.2-7.5,7.3c0,4.1,3.1,7.5,7.2,7.5C113.3,175.7,116.6,172.5,116.7,168.3z M136.2,163.1
		c4.1,0,7.5-3.3,7.5-7.4c0-4.1-3.3-7.4-7.5-7.4c-4.1,0-7.4,3.3-7.4,7.3C128.7,159.7,132.1,163.1,136.2,163.1z"/>
</g>
<g>
	<path class="st0" d="M-64.2,461c-0.8-0.7-2.4-1.8-3.6-3.2c-14.3-16.4-28.5-32.8-42.7-49.1c-5.4-6.2-4.9-13,1.3-18.4
		c16.2-14.1,32.4-28.1,48.6-42.2c6.3-5.5,13.1-5,18.5,1.2c14.2,16.4,28.4,32.8,42.7,49.2c4.9,5.6,4.3,12.7-1.3,17.6
		c-16.5,14.3-33,28.7-49.6,43C-54.1,462.5-58.5,463.2-64.2,461z M-76.7,405.7c2.5-5.7,0-12.5-5.7-15c-5.7-2.5-12.5,0.1-15,5.8
		c-2.5,5.7,0.1,12.4,5.7,14.9C-86,414-79.2,411.4-76.7,405.7z M-27.9,415.8c5.7,2.6,12.4,0.1,15-5.6c2.6-5.7,0.1-12.4-5.7-15
		c-5.7-2.6-12.5,0-15,5.7C-36,406.6-33.5,413.3-27.9,415.8z M-65.3,398.6c-2.6,5.7-0.2,12.4,5.5,15c5.7,2.6,12.4,0.1,15-5.6
		c2.6-5.7,0.1-12.3-5.5-14.9C-56,390.4-62.7,392.9-65.3,398.6z"/>
	<path class="st0" d="M-51.3,334.5c0-5-0.3-9.7-0.1-14.4c0.3-6.5,5.5-11.2,12.2-11.2c19.3-0.2,38.6-0.3,57.9-0.5
		c2.7,0,5.4-0.1,8.1-0.1c7.2,0.1,12.2,5,12.3,12.1c0.2,22.1,0.4,44.1,0.6,66.2c0.1,6.9-4.9,12-11.8,12.2c-5.3,0.2-10.5,0.2-15.8,0.1
		c-0.6,0-1.4-0.4-1.8-0.9c-17-19.6-34-39.1-51-58.7C-43.4,336.2-46.9,334.7-51.3,334.5z M-33.4,341.7c5.7,2.6,12.5,0.2,15.1-5.5
		c2.6-5.7,0.1-12.4-5.6-15c-5.7-2.6-12.4-0.1-15,5.6C-41.5,332.4-39,339.1-33.4,341.7z M11.9,341.3c5.7,2.7,12.4,0.3,15-5.5
		c2.6-5.7,0.2-12.3-5.4-14.9c-5.7-2.7-12.4-0.4-15,5.2C3.7,331.9,6.1,338.6,11.9,341.3z M6.8,371.6c-2.6,5.7-0.2,12.4,5.5,15.1
		c5.6,2.6,12.4,0.1,15-5.7c2.6-5.6,0.1-12.3-5.5-14.9C16.2,363.4,9.4,365.9,6.8,371.6z"/>
</g>
<g>
	<path class="st0" d="M102.3,48.6c-0.4,1.3-0.8,3.8-1.8,5.9C89,79.9,77.4,105.2,65.8,130.5c-4.4,9.6-12.6,12.6-22.2,8.2
		c-25-11.4-50-22.9-75-34.3c-9.7-4.5-12.8-12.6-8.4-22.3C-28.3,56.8-16.7,31.5-5.2,6.2c4-8.7,12.5-11.8,21.2-7.9
		c25.5,11.6,51,23.3,76.6,35C98.7,36.1,101.9,40.9,102.3,48.6z M44.5,92.6c-8,0.1-14.5,6.7-14.5,14.7c0.1,8,6.8,14.6,14.7,14.4
		c8-0.2,14.4-6.7,14.4-14.5C59,99.2,52.4,92.6,44.5,92.6z M30.3,30.3c0-8.1-6.5-14.6-14.5-14.6c-8.1,0-14.5,6.5-14.5,14.6
		c0,8.1,6.6,14.6,14.6,14.5C23.9,44.6,30.3,38.2,30.3,30.3z M30.1,83.2c8.1,0,14.6-6.4,14.6-14.5c0-8-6.5-14.5-14.5-14.5
		c-8,0-14.4,6.4-14.5,14.3C15.6,76.6,22.1,83.2,30.1,83.2z"/>
	<path class="st0" d="M-52.2,100.9c-5.8,2.7-11.2,5.4-16.7,7.7c-7.7,3.1-16-0.5-19.6-8.3c-10.5-22.4-20.9-44.9-31.4-67.3
		c-1.5-3.1-3-6.2-4.4-9.4c-3.7-8.4-0.7-16.9,7.6-20.8c25.6-12,51.3-24,76.9-35.9c8.1-3.7,16.6-0.7,20.6,7.2c3,6.1,5.8,12.2,8.6,18.4
		c0.3,0.7,0.2,1.8-0.1,2.5c-13.8,30.3-27.6,60.5-41.4,90.7C-54.4,90.7-54.2,95.7-52.2,100.9z M-53.3,76.2c0-8.1-6.4-14.6-14.4-14.7
		c-8,0-14.5,6.5-14.5,14.5c0,8.1,6.5,14.6,14.5,14.5C-59.8,90.6-53.3,84.1-53.3,76.2z M-77.8,23.5c0.1-8.1-6.3-14.5-14.4-14.6
		c-8-0.1-14.5,6.3-14.5,14.2c-0.1,8.1,6.1,14.6,14,14.7C-84.4,38-77.9,31.7-77.8,23.5z M-39.7,13.3c8.1,0,14.6-6.4,14.6-14.4
		c0.1-7.9-6.5-14.5-14.6-14.5c-7.9,0-14.4,6.4-14.5,14.3C-54.3,6.7-47.7,13.3-39.7,13.3z"/>
</g>
</svg>
